<mxfile host="Electron" modified="2024-01-11T15:54:15.133Z" agent="Mozilla/5.0 (Windows NT 10.0; Win64; x64) AppleWebKit/537.36 (KHTML, like Gecko) draw.io/22.1.16 Chrome/120.0.6099.109 Electron/28.1.0 Safari/537.36" etag="QHDH2eWYBjbvH9NMJnYD" version="22.1.16" type="device">
  <diagram name="Page-1" id="38b20595-45e3-9b7f-d5ca-b57f44c5b66d">
    <mxGraphModel dx="5351" dy="3001" grid="1" gridSize="10" guides="1" tooltips="1" connect="1" arrows="1" fold="1" page="1" pageScale="1" pageWidth="1100" pageHeight="850" background="none" math="0" shadow="0">
      <root>
        <mxCell id="0" />
        <mxCell id="1" parent="0" />
        <mxCell id="4fT_HpHWGRJeqnP0KvZt-26" value="" style="group;movable=1;resizable=1;rotatable=1;deletable=1;editable=1;locked=0;connectable=1;" parent="1" vertex="1" connectable="0">
          <mxGeometry x="210" y="50" width="750" height="750.0000000000001" as="geometry" />
        </mxCell>
        <mxCell id="4fT_HpHWGRJeqnP0KvZt-2" value="" style="whiteSpace=wrap;html=1;aspect=fixed;dashed=1;dashPattern=8 8;strokeWidth=1;shadow=1;rounded=0;glass=0;fillStyle=auto;fillColor=default;movable=0;resizable=0;rotatable=0;deletable=0;editable=0;locked=1;connectable=0;" parent="4fT_HpHWGRJeqnP0KvZt-26" vertex="1">
          <mxGeometry width="750.0000000000001" height="750.0000000000001" as="geometry" />
        </mxCell>
        <mxCell id="4fT_HpHWGRJeqnP0KvZt-3" value="&lt;font style=&quot;font-size: 14px;&quot;&gt;Map: Origin&lt;/font&gt;" style="text;html=1;strokeColor=none;fillColor=none;align=center;verticalAlign=middle;whiteSpace=wrap;rounded=0;" parent="4fT_HpHWGRJeqnP0KvZt-26" vertex="1">
          <mxGeometry width="100" height="40" as="geometry" />
        </mxCell>
        <mxCell id="4fT_HpHWGRJeqnP0KvZt-16" value="" style="endArrow=none;html=1;rounded=0;exitX=0.5;exitY=0;exitDx=0;exitDy=0;entryX=0.5;entryY=1;entryDx=0;entryDy=0;" parent="4fT_HpHWGRJeqnP0KvZt-26" source="4fT_HpHWGRJeqnP0KvZt-6" target="4fT_HpHWGRJeqnP0KvZt-1" edge="1">
          <mxGeometry width="50" height="50" relative="1" as="geometry">
            <mxPoint x="560" y="430" as="sourcePoint" />
            <mxPoint x="610" y="380" as="targetPoint" />
            <Array as="points">
              <mxPoint x="245" y="120" />
            </Array>
          </mxGeometry>
        </mxCell>
        <mxCell id="4fT_HpHWGRJeqnP0KvZt-30" value="" style="group" parent="4fT_HpHWGRJeqnP0KvZt-26" vertex="1" connectable="0">
          <mxGeometry x="90" y="50" width="110" height="80" as="geometry" />
        </mxCell>
        <mxCell id="4fT_HpHWGRJeqnP0KvZt-27" value="" style="group" parent="4fT_HpHWGRJeqnP0KvZt-30" vertex="1" connectable="0">
          <mxGeometry y="40" width="100" height="40" as="geometry" />
        </mxCell>
        <mxCell id="4fT_HpHWGRJeqnP0KvZt-1" value="" style="ellipse;whiteSpace=wrap;html=1;aspect=fixed;" parent="4fT_HpHWGRJeqnP0KvZt-27" vertex="1">
          <mxGeometry x="45" width="30" height="30" as="geometry" />
        </mxCell>
        <mxCell id="4fT_HpHWGRJeqnP0KvZt-12" value="SpawnTown" style="text;html=1;strokeColor=none;fillColor=none;align=center;verticalAlign=middle;whiteSpace=wrap;rounded=0;" parent="4fT_HpHWGRJeqnP0KvZt-30" vertex="1">
          <mxGeometry width="110" height="40" as="geometry" />
        </mxCell>
        <mxCell id="4fT_HpHWGRJeqnP0KvZt-48" value="" style="group" parent="4fT_HpHWGRJeqnP0KvZt-26" vertex="1" connectable="0">
          <mxGeometry x="230" y="590" width="140" height="40" as="geometry" />
        </mxCell>
        <mxCell id="4fT_HpHWGRJeqnP0KvZt-13" value="Monaco&amp;nbsp;&lt;span style=&quot;font-family: Verdana; font-size: 10px;&quot;&gt;State&lt;/span&gt;" style="text;html=1;strokeColor=none;fillColor=none;align=center;verticalAlign=middle;whiteSpace=wrap;rounded=0;" parent="4fT_HpHWGRJeqnP0KvZt-48" vertex="1">
          <mxGeometry x="40" width="100" height="40" as="geometry" />
        </mxCell>
        <mxCell id="4fT_HpHWGRJeqnP0KvZt-6" value="&lt;font face=&quot;Verdana&quot; style=&quot;font-size: 10px;&quot;&gt;&lt;br&gt;&lt;/font&gt;" style="ellipse;whiteSpace=wrap;html=1;aspect=fixed;" parent="4fT_HpHWGRJeqnP0KvZt-48" vertex="1">
          <mxGeometry width="30" height="30" as="geometry" />
        </mxCell>
        <mxCell id="4fT_HpHWGRJeqnP0KvZt-31" value="" style="group;movable=1;resizable=1;rotatable=1;deletable=1;editable=1;locked=0;connectable=1;" parent="1" vertex="1" connectable="0">
          <mxGeometry x="210" y="800" width="750" height="750.0000000000001" as="geometry" />
        </mxCell>
        <mxCell id="4fT_HpHWGRJeqnP0KvZt-32" value="" style="whiteSpace=wrap;html=1;aspect=fixed;dashed=1;dashPattern=8 8;strokeWidth=1;shadow=1;rounded=0;glass=0;fillStyle=auto;fillColor=default;movable=0;resizable=0;rotatable=0;deletable=0;editable=0;locked=1;connectable=0;" parent="4fT_HpHWGRJeqnP0KvZt-31" vertex="1">
          <mxGeometry width="750.0000000000001" height="750.0000000000001" as="geometry" />
        </mxCell>
        <mxCell id="4fT_HpHWGRJeqnP0KvZt-33" value="&lt;font style=&quot;font-size: 14px;&quot;&gt;Map: South&lt;/font&gt;" style="text;html=1;strokeColor=none;fillColor=none;align=center;verticalAlign=middle;whiteSpace=wrap;rounded=0;" parent="4fT_HpHWGRJeqnP0KvZt-31" vertex="1">
          <mxGeometry width="100" height="40" as="geometry" />
        </mxCell>
        <mxCell id="4fT_HpHWGRJeqnP0KvZt-42" value="" style="group" parent="4fT_HpHWGRJeqnP0KvZt-31" vertex="1" connectable="0">
          <mxGeometry x="90" y="20" width="110" height="80" as="geometry" />
        </mxCell>
        <mxCell id="4fT_HpHWGRJeqnP0KvZt-43" value="" style="group" parent="4fT_HpHWGRJeqnP0KvZt-42" vertex="1" connectable="0">
          <mxGeometry y="40" width="100" height="40" as="geometry" />
        </mxCell>
        <mxCell id="4fT_HpHWGRJeqnP0KvZt-44" value="" style="ellipse;whiteSpace=wrap;html=1;aspect=fixed;" parent="4fT_HpHWGRJeqnP0KvZt-43" vertex="1">
          <mxGeometry x="45" width="30" height="30" as="geometry" />
        </mxCell>
        <mxCell id="4fT_HpHWGRJeqnP0KvZt-45" value="Nova Deli" style="text;html=1;strokeColor=none;fillColor=none;align=center;verticalAlign=middle;whiteSpace=wrap;rounded=0;" parent="4fT_HpHWGRJeqnP0KvZt-42" vertex="1">
          <mxGeometry width="110" height="40" as="geometry" />
        </mxCell>
        <mxCell id="4fT_HpHWGRJeqnP0KvZt-46" style="edgeStyle=orthogonalEdgeStyle;rounded=0;orthogonalLoop=1;jettySize=auto;html=1;exitX=0.5;exitY=1;exitDx=0;exitDy=0;entryX=1;entryY=0.5;entryDx=0;entryDy=0;" parent="1" source="4fT_HpHWGRJeqnP0KvZt-6" target="4fT_HpHWGRJeqnP0KvZt-44" edge="1">
          <mxGeometry relative="1" as="geometry" />
        </mxCell>
        <mxCell id="dbARvBdUBbSRU44dgSUz-2" value="" style="group;movable=1;resizable=1;rotatable=1;deletable=1;editable=1;locked=0;connectable=1;" parent="1" vertex="1" connectable="0">
          <mxGeometry x="-540" y="-700" width="750" height="750.0000000000001" as="geometry" />
        </mxCell>
        <mxCell id="dbARvBdUBbSRU44dgSUz-3" value="" style="whiteSpace=wrap;html=1;aspect=fixed;dashed=1;dashPattern=8 8;strokeWidth=1;shadow=1;rounded=0;glass=0;fillStyle=auto;fillColor=default;movable=0;resizable=0;rotatable=0;deletable=0;editable=0;locked=1;connectable=0;" parent="dbARvBdUBbSRU44dgSUz-2" vertex="1">
          <mxGeometry width="750.0000000000001" height="750.0000000000001" as="geometry" />
        </mxCell>
        <mxCell id="dbARvBdUBbSRU44dgSUz-4" value="&lt;font style=&quot;font-size: 14px;&quot;&gt;Map 2&lt;/font&gt;" style="text;html=1;strokeColor=none;fillColor=none;align=center;verticalAlign=middle;whiteSpace=wrap;rounded=0;" parent="dbARvBdUBbSRU44dgSUz-2" vertex="1">
          <mxGeometry width="100" height="40" as="geometry" />
        </mxCell>
        <mxCell id="dbARvBdUBbSRU44dgSUz-6" value="" style="group" parent="dbARvBdUBbSRU44dgSUz-2" vertex="1" connectable="0">
          <mxGeometry x="90" y="50" width="110" height="80" as="geometry" />
        </mxCell>
        <mxCell id="dbARvBdUBbSRU44dgSUz-7" value="" style="group" parent="dbARvBdUBbSRU44dgSUz-6" vertex="1" connectable="0">
          <mxGeometry y="40" width="100" height="40" as="geometry" />
        </mxCell>
        <mxCell id="dbARvBdUBbSRU44dgSUz-8" value="" style="ellipse;whiteSpace=wrap;html=1;aspect=fixed;" parent="dbARvBdUBbSRU44dgSUz-7" vertex="1">
          <mxGeometry x="45" width="30" height="30" as="geometry" />
        </mxCell>
        <mxCell id="dbARvBdUBbSRU44dgSUz-9" value="SpawnTown" style="text;html=1;strokeColor=none;fillColor=none;align=center;verticalAlign=middle;whiteSpace=wrap;rounded=0;" parent="dbARvBdUBbSRU44dgSUz-6" vertex="1">
          <mxGeometry width="110" height="40" as="geometry" />
        </mxCell>
      </root>
    </mxGraphModel>
  </diagram>
</mxfile>
